# xmcd
#
# Track frame offsets:
# 150
# 16402
# 35482
# 63272
# 82580
# 97457
# 135420
# 157172
# 173602
# 201890
# 218434
# 233590
# 269960
#
# Disc length: 4259 seconds
#
#
# Revision: 1
# Processed by: cddbd v1.5.1PL2 Copyright (c) Steve Scherf et al.
# Submitted via: FreeRIP 2.945 
#
DISCID=ad10a10d
DTITLE=Franui - drüben
DYEAR=1997
DGENRE=Jazz
TTITLE0=Tull
TTITLE1=Drei Gesätze
TTITLE2=Die dörfliche Aufklärung
TTITLE3=Ordnung
TTITLE4=Litanei der Flüche
TTITLE5=Geschichtsbetrachtung
TTITLE6=Risenrundgemälde
TTITLE7=Schreibt die Ortsbäuerin
TTITLE8=Finschtra Frau
TTITLE9=Adam und Eva
TTITLE10=Das Feld neben meinem Haus
TTITLE11=In die Dunkelheit
TTITLE12=Zeit
EXTD=
EXTT0=
EXTT1=
EXTT2=
EXTT3=
EXTT4=
EXTT5=
EXTT6=
EXTT7=
EXTT8=
EXTT9=
EXTT10=
EXTT11=
EXTT12=
PLAYORDER=
